# xmcd CD database file
#
# Track frame offsets:
#	150
#	17002
#	29663
#	41118
#	53118
#	72567
#	84596
#	96049
#	108222
#	124456
#	140486
#	154293
#	169068
#	179362
#	193063
#
# Disc length: 2699 seconds
#
# Revision: 0
# Processed by: cddbd v1.5.2PL0 Copyright (c) Steve Scherf et al.
# Submitted via: CDex 1.51
#
DISCID=d80a890f
DTITLE=Anna Wilson - Just For You
DYEAR=2007
DGENRE=Country
TTITLE0=Take Good Care Of My Heart
TTITLE1=Near You
TTITLE2=Dark Moon
TTITLE3=Blue Forever
TTITLE4=Keeper Of Your Flame
TTITLE5=My Happiness
TTITLE6=It's A Lovely Lovely World
TTITLE7=Our Love Is Gone
TTITLE8=Storms Never Last
TTITLE9=I See Him Everywhere
TTITLE10=I'll Get Over You
TTITLE11=Upside Of Down
TTITLE12=Sunshine Of My World
TTITLE13=If He Just Helps Me Get Over You
TTITLE14=Down In Dallas
EXTD=YEAR: 2007
EXTT0=
EXTT1=
EXTT2=
EXTT3=
EXTT4=
EXTT5=
EXTT6=
EXTT7=
EXTT8=
EXTT9=
EXTT10=
EXTT11=
EXTT12=
EXTT13=
EXTT14=
PLAYORDER=
